
<svg xmlns="http://www.w3.org/2000/svg" viewBox="0 0 600 220">
  <rect width="600" height="220" fill="#ffffff" x="0" y="0" style="" rx="10"></rect>
  <text x="20.554" y="30.937" font-family="Arial, sans-serif" font-size="16" font-weight="bold" style="white-space: pre; font-size: 16px;">HTML Parsing Performance (5 runs average)</text>
  <g transform="matrix(1, 0, 0, 1, 100.557938, 50.937126)">
    <g transform="translate(0, 0)">
      <rect x="0" y="0" width="8" height="25" fill="#3fb950"></rect>
      <text x="-5" y="17" font-family="Arial, sans-serif" font-size="14" text-anchor="end" style="white-space: pre;">Parser</text>
      <text x="13" y="17" font-family="Arial, sans-serif" font-size="14" style="white-space: pre;">1ms</text>
    </g>
    <g transform="translate(0, 40)">
      <rect x="0" y="0" width="16" height="25" fill="#3178c6"></rect>
      <text x="-5" y="17" font-family="Arial, sans-serif" font-size="14" text-anchor="end" style="white-space: pre;">DomParser</text>
      <text x="21" y="17" font-family="Arial, sans-serif" font-size="14" style="white-space: pre;">2ms</text>
    </g>
    <g transform="translate(0, 80)">
      <rect x="0" y="0" width="438" height="25" fill="#f1e05a"></rect>
      <text x="-5" y="17" font-family="Arial, sans-serif" font-size="14" text-anchor="end" style="white-space: pre;">jsdom</text>
      <text x="378.001" y="16.694" font-family="Arial, sans-serif" font-size="14" style="white-space: pre; font-size: 14px;">54.75ms</text>
    </g>
  </g>
  <text x="18.198" y="205.098" font-family="Arial, sans-serif" font-size="12" fill="#666" style="white-space: pre; font-size: 12px;">Generated on 2025-02-21 10:08:35 UTC</text>
  <g transform="matrix(1, 0, 0, 1, 100.557938, 163.937134)">
    <line x1="0" y1="0" x2="400" y2="0" stroke="#ddd" stroke-width="1"></line>
    <g>
      <line x1="0" y1="-5" x2="0" y2="5" stroke="#ddd" stroke-width="1"></line>
      <text x="0" y="20" font-family="Arial, sans-serif" font-size="12" text-anchor="middle" style="white-space: pre;">0ms</text>
    </g>
    <g transform="translate(200, 0)">
      <line x1="0" y1="-5" x2="0" y2="5" stroke="#ddd" stroke-width="1"></line>
      <text x="0" y="20" font-family="Arial, sans-serif" font-size="12" text-anchor="middle" style="white-space: pre;">25ms</text>
    </g>
    <g transform="translate(400, 0)">
      <line x1="0" y1="-5" x2="0" y2="5" stroke="#ddd" stroke-width="1"></line>
      <text x="0" y="20" font-family="Arial, sans-serif" font-size="12" text-anchor="middle" style="white-space: pre;">50ms</text>
    </g>
  </g>
  <text x="449.949" y="30.608" font-family="Arial, sans-serif" font-size="12" fill="#666" style="white-space: pre; font-size: 12px;">(HTML 2551 characters)</text>
</svg>
